<svg version="1" xmlns="http://www.w3.org/2000/svg" width="341.333" height="341.333" viewBox="0 0 256.000000 256.000000"><path d="M0 128v128h256V0H0v128zm143.6-90.2c2.6 1.7 3.4 5.6 3.4 17.1 0 11.6-.1 12-2.5 13.9-1.6 1.3-2.5 3-2.5 4.9 0 2.8.3 3 7.1 4.5 12.1 2.9 23 8.9 32.4 17.9 4.6 4.4 10.2 10.8 12.4 14.3 15.1 23.2 16 53.9 2.4 78.6-4.8 8.6-19.7 23.6-28 28.1-6 3.2-6.3 3.6-6.3 7.1v3.8H98v-3.8c0-3.5-.3-3.9-6.3-7.1-8.3-4.5-23.2-19.5-28-28.1-13.6-24.7-12.7-55.4 2.4-78.6 2.2-3.5 7.8-9.9 12.4-14.3 9.4-9 20.3-15 32.4-17.9 6.8-1.5 7.1-1.7 7.1-4.5 0-1.9-.9-3.6-2.5-4.9-2.4-1.9-2.5-2.3-2.5-13.9 0-11.5.8-15.4 3.4-17.1.6-.4 6.7-.8 13.6-.8 6.9 0 13 .4 13.6.8z"/></svg>